<?xml version="1.0" encoding="UTF-8" standalone="no" ?>
<!DOCTYPE svg PUBLIC "-//W3C//DTD SVG 1.1//EN" "http://www.w3.org/Graphics/SVG/1.1/DTD/svg11.dtd">
<svg xmlns="http://www.w3.org/2000/svg" xmlns:xlink="http://www.w3.org/1999/xlink" version="1.1" width="1080" height="1080" viewBox="0 0 1080 1080" xml:space="preserve">
<desc>Created with Fabric.js 5.2.4</desc>
<defs>
</defs>
<g transform="matrix(1 0 0 1 540 540)" id="7595d20b-2554-4a43-862f-6f1fe4959958"  >
<rect style="stroke: none; stroke-width: 1; stroke-dasharray: none; stroke-linecap: butt; stroke-dashoffset: 0; stroke-linejoin: miter; stroke-miterlimit: 4; fill: rgb(255,255,255); fill-rule: nonzero; opacity: 1; visibility: hidden;" vector-effect="non-scaling-stroke"  x="-540" y="-540" rx="0" ry="0" width="1080" height="1080" />
</g>
<g transform="matrix(1 0 0 1 540 540)" id="6629d3ac-2783-4151-84c2-e28487e9c28e"  >
</g>
<g transform="matrix(NaN NaN NaN NaN 0 0)"  >
<g style=""   >
</g>
</g>
<g transform="matrix(1 0 0 1 540 540)" id="75f40bb5-a74b-4ecb-8776-ff4fc73a6d60"  >
<path style="stroke: rgb(0,0,0); stroke-width: 0; stroke-dasharray: none; stroke-linecap: butt; stroke-dashoffset: 0; stroke-linejoin: miter; stroke-miterlimit: 4; fill: rgb(169,169,169); fill-rule: nonzero; opacity: 1;" vector-effect="non-scaling-stroke"  transform=" translate(-224, -256)" d="M 0 96 C 0 78.3 14.3 64 32 64 L 416 64 C 433.7 64 448 78.3 448 96 C 448 113.7 433.7 128 416 128 L 32 128 C 14.3 128 0 113.7 0 96 z M 0 256 C 0 238.3 14.3 224 32 224 L 416 224 C 433.7 224 448 238.3 448 256 C 448 273.7 433.7 288 416 288 L 32 288 C 14.3 288 0 273.7 0 256 z M 448 416 C 448 433.7 433.7 448 416 448 L 32 448 C 14.3 448 0 433.7 0 416 C 0 398.3 14.3 384 32 384 L 416 384 C 433.7 384 448 398.3 448 416 z" stroke-linecap="round" />
</g>
</svg>